<?xml version="1.0" standalone="no"?>
<!DOCTYPE svg PUBLIC "-//W3C//DTD SVG 20010904//EN" "http://www.w3.org/TR/2001/REC-SVG-20010904/DTD/svg10.dtd">
<svg version="1.0" xmlns="http://www.w3.org/2000/svg" width="288.000000pt" height="288.000000pt" viewBox="0 0 288.000000 288.000000" preserveAspectRatio="xMidYMid meet">
  <metadata>
    Created by potrace 1.14, written by Peter Selinger 2001-2017
  </metadata>
  <g transform="translate(0.000000,288.000000) scale(0.100000,-0.100000)" fill="#000000" stroke="none">
    <path d="M1194 2854 c-11 -16 -26 -42 -33 -59 -42 -94 -131 -394 -146 -491 -5
-32 -12 -42 -34 -51 -37 -14 -68 -79 -87 -184 -8 -46 -21 -97 -29 -114 -9 -16
-33 -79 -54 -140 -21 -60 -75 -198 -118 -305 -44 -107 -97 -256 -117 -330
-119 -435 -173 -612 -221 -734 -71 -179 -103 -281 -107 -342 l-3 -49 55 -18
c84 -28 223 -44 255 -29 34 16 62 79 80 181 8 49 37 136 74 225 58 138 131
359 131 393 0 14 18 15 173 7 203 -11 444 -11 612 0 111 7 122 6 152 -13 43
-27 108 -111 148 -191 32 -65 147 -364 180 -471 10 -31 26 -67 35 -80 18 -23
19 -23 84 -10 75 15 106 11 191 -24 95 -39 197 -28 225 25 15 27 8 46 -112
312 -172 384 -192 444 -223 668 -19 131 -37 178 -90 235 -52 55 -84 128 -107
248 -11 56 -24 126 -29 155 -6 30 -25 74 -46 105 -57 84 -64 103 -53 131 9 24
7 26 -15 26 -19 0 -25 5 -25 21 0 11 -9 41 -21 66 -26 56 -35 108 -21 117 7 4
2 20 -13 43 -14 20 -30 54 -35 77 -28 111 -62 208 -75 213 -8 3 -15 14 -15 25
0 10 -7 33 -17 51 -9 18 -31 69 -49 114 -77 196 -97 210 -326 220 l-155 6 -19
-29z m206 -109 c33 -14 73 -25 90 -25 24 0 42 -12 86 -57 66 -69 103 -141 106
-208 l3 -48 -154 -51 -154 -52 -32 -50 c-64 -99 -240 -234 -307 -234 -31 0
-23 56 14 93 29 30 31 36 29 97 -2 81 18 117 86 156 65 37 113 73 113 85 0 5
-20 9 -44 9 l-44 0 14 40 c8 22 19 72 25 112 6 40 19 92 29 116 16 36 23 42
50 42 17 0 57 -11 90 -25z m300 -393 c0 -12 -185 -192 -197 -192 -23 0 -73 74
-73 108 0 27 103 72 188 82 37 4 70 8 75 9 4 0 7 -3 7 -7z m80 -129 c61 -146
63 -154 42 -177 -33 -37 -38 -50 -13 -36 18 9 27 8 46 -4 27 -18 37 -62 37
-166 1 -87 -30 -155 -104 -230 -47 -47 -53 -51 -64 -35 -18 24 -26 84 -16 120
6 24 20 36 67 59 66 33 56 46 -20 27 -24 -6 -57 -11 -73 -11 -29 0 -30 1 -21
38 5 20 12 50 15 65 l7 28 -38 -18 c-36 -17 -37 -17 -51 1 -21 29 -28 84 -16
122 6 21 6 34 1 34 -14 0 -59 47 -59 61 0 6 41 54 92 105 117 120 125 121 168
17z m-510 -155 c-1 -43 -40 -110 -100 -169 -72 -71 -236 -183 -256 -175 -8 3
-14 19 -14 41 0 55 32 80 130 101 78 17 133 44 118 59 -3 4 -38 -1 -77 -11
-40 -9 -74 -14 -78 -10 -9 8 22 41 89 93 117 90 188 117 188 71z m314 -440 c3
-20 24 -76 45 -124 39 -92 75 -195 86 -251 l7 -33 -44 0 c-24 0 -124 -7 -223
-16 -261 -23 -385 -12 -400 38 -4 11 12 48 45 103 120 199 207 426 265 690 6
26 16 9 109 -171 57 -110 106 -216 110 -236z m-430 175 c-27 -110 -59 -156
-121 -177 -61 -21 -143 -22 -143 -1 0 8 42 46 93 84 50 37 103 80 117 94 14
14 33 25 43 26 14 1 16 -4 11 -26z m805 -104 c24 -26 45 -108 44 -176 -1 -123
-133 -230 -178 -143 -8 16 -15 34 -15 39 0 6 35 29 78 51 74 38 71 41 -21 18
-67 -16 -106 15 -69 56 10 12 40 56 68 98 27 43 54 78 61 78 7 0 21 -9 32 -21z
m-929 -159 c-40 -30 -261 -163 -265 -158 -8 7 42 138 60 158 16 18 30 20 124
20 l106 0 -25 -20z m0 -76 c0 -8 -5 -24 -10 -34 -12 -23 -89 -70 -113 -70 -41
0 1 68 61 100 45 24 62 25 62 4z m1061 -169 c40 -129 50 -273 25 -340 -10 -24
-33 -58 -52 -75 -30 -26 -43 -30 -89 -30 -47 0 -57 3 -71 25 -9 14 -15 27 -13
28 2 2 38 19 79 39 42 20 87 49 100 64 l25 26 -25 -7 c-14 -3 -64 -22 -111
-41 -82 -32 -169 -45 -169 -25 0 12 66 98 158 204 39 46 72 90 72 96 0 7 -23
11 -65 11 -36 0 -65 3 -65 6 0 17 45 76 71 95 34 24 81 39 91 30 4 -4 22 -52
39 -106z m-1171 17 c0 -4 -11 -24 -25 -44 -23 -35 -179 -148 -204 -148 -6 0
-11 15 -11 34 0 85 26 129 92 152 37 14 148 18 148 6z m1006 -118 c-15 -14
-30 -23 -32 -21 -9 8 8 36 24 40 35 9 36 6 8 -19z m-1076 -84 l0 -50 -57 0
-58 0 52 50 c28 28 54 50 57 50 3 0 6 -22 6 -50z m787 -35 c73 -22 83 -38 47
-76 -58 -62 -144 -89 -282 -89 l-93 0 3 28 c2 22 15 33 63 59 72 39 75 39 76
11 0 -13 3 -17 6 -11 6 17 103 93 117 93 7 0 35 -7 63 -15z m-525 -22 c23 -21
23 -65 1 -86 -42 -37 -238 -51 -238 -17 0 13 185 119 209 120 5 0 18 -7 28
-17z m222 -22 c13 -20 -97 -91 -139 -91 -25 0 -17 39 14 71 24 23 38 29 75 29
24 0 47 -4 50 -9z m-560 -27 c24 -9 19 -30 -15 -58 -34 -29 -70 -49 -108 -61
-23 -7 -24 -6 -18 36 9 70 75 108 141 83z m989 -22 c-10 -28 -24 -42 -44 -42
-32 0 -22 37 16 58 24 13 36 7 28 -16z m437 -78 c27 -71 -2 -180 -70 -257 -51
-58 -110 -48 -110 18 0 39 18 56 94 89 33 15 57 29 54 32 -3 3 -36 0 -73 -7
-58 -10 -69 -9 -83 4 -14 15 -14 18 4 38 25 28 145 109 162 109 7 0 17 -12 22
-26z m-1410 -33 c0 -14 -71 -72 -106 -87 -19 -8 -43 -14 -56 -14 -20 0 -20 2
13 36 18 20 50 44 69 54 37 20 80 26 80 11z m-80 -160 c0 -10 -138 -121 -151
-121 -23 0 -6 52 29 90 33 34 45 40 80 40 23 0 42 -4 42 -9z m1570 -17 c16
-42 12 -92 -10 -114 -22 -22 -119 -53 -151 -48 -18 3 -16 10 31 78 77 113 111
135 130 84z m-1 -251 c-72 -68 -83 -75 -101 -68 -17 7 -48 57 -48 79 0 25 37
52 98 69 89 26 106 26 110 0 3 -17 -13 -38 -59 -80z m127 -68 c41 -84 53 -147
34 -170 -27 -32 -200 -9 -200 27 0 7 21 33 46 59 l46 46 -49 -12 c-26 -7 -52
-10 -56 -8 -15 9 31 65 79 99 27 18 53 33 57 34 4 0 24 -34 43 -75z m-1826 41
c0 -19 -45 -84 -93 -133 -30 -31 -36 -43 -24 -43 21 0 22 -28 1 -58 -10 -15
-24 -22 -37 -20 -19 3 -22 10 -25 58 -6 110 63 210 145 210 21 0 33 -5 33 -14z" />
  </g>
</svg>
