<?xml version="1.0" standalone="no"?>
<!DOCTYPE svg PUBLIC "-//W3C//DTD SVG 20010904//EN"
 "http://www.w3.org/TR/2001/REC-SVG-20010904/DTD/svg10.dtd">
<svg version="1.0" xmlns="http://www.w3.org/2000/svg"
 width="384.000000pt" height="384.000000pt" viewBox="0 0 384.000000 384.000000"
 preserveAspectRatio="xMidYMid meet">
<metadata>
Created by potrace 1.14, written by Peter Selinger 2001-2017
</metadata>
<g transform="translate(0.000000,384.000000) scale(0.100000,-0.100000)"
fill="#000000" stroke="none">
<path d="M1979 3735 c-85 -21 -163 -59 -200 -98 l-33 -35 -41 21 c-31 17 -58
21 -125 21 -131 1 -244 -39 -344 -122 -104 -86 -159 -196 -187 -372 -5 -36
-12 -80 -16 -98 -10 -62 4 -96 57 -138 27 -21 56 -54 65 -72 29 -59 49 -226
32 -263 -5 -9 0 -24 13 -39 23 -27 26 -58 6 -66 -8 -3 -19 -17 -25 -32 -9 -22
-7 -43 13 -109 l23 -82 -578 -3 -579 -3 -27 -28 -28 -27 -3 -1095 -2 -1095
1920 0 1920 0 -2 1095 -3 1095 -28 27 -27 28 -560 3 c-352 2 -560 6 -560 12 0
21 41 50 69 50 20 0 35 8 45 22 25 36 18 52 -8 21 -39 -45 -51 -20 -26 56 11
35 20 85 20 112 0 61 15 103 35 95 29 -11 6 81 -27 110 -12 10 -19 14 -15 9 3
-6 -8 -30 -24 -54 -16 -24 -29 -48 -29 -53 0 -4 -5 -8 -11 -8 -8 0 -10 17 -7
50 3 28 1 53 -3 56 -5 3 -9 18 -9 34 0 16 -9 86 -20 154 -22 134 -22 140 17
259 31 96 28 113 -35 226 -60 109 -200 254 -282 294 -117 56 -251 71 -371 42z
m162 -536 c36 -11 101 -40 145 -63 l79 -42 11 -62 c10 -56 5 -78 -11 -52 -10
16 -84 32 -146 31 -63 0 -141 -27 -196 -68 -36 -26 -41 -47 -17 -74 14 -16 13
-22 -15 -71 -33 -58 -38 -73 -20 -63 7 5 6 0 -1 -11 -10 -16 -25 -19 -101 -19
-78 0 -90 2 -95 19 -5 15 -13 17 -45 13 -34 -4 -39 -2 -39 14 0 25 -21 24 -78
-5 -26 -13 -76 -26 -113 -30 l-66 -7 -8 58 c-4 32 -13 107 -19 167 -15 129
-17 125 109 187 64 31 112 45 235 68 194 36 300 39 391 10z m220 -279 c28 -14
49 -32 55 -49 l10 -26 -93 3 c-109 5 -215 -16 -283 -53 -34 -19 -39 -20 -22
-5 18 14 23 28 20 52 -3 28 2 36 37 59 22 14 54 31 70 37 46 18 153 8 206 -18z
m49 -135 c12 -11 30 -36 40 -55 l18 -36 -71 23 c-40 13 -91 27 -115 30 -23 3
-45 10 -48 14 -3 5 -30 9 -61 9 -31 0 -54 3 -51 6 17 17 112 33 184 31 66 -2
86 -6 104 -22z m-60 -98 c37 -17 80 -58 80 -78 0 -9 7 -33 15 -52 21 -51 19
-71 -11 -107 -38 -44 -98 -72 -171 -78 -81 -6 -139 15 -188 70 -33 36 -36 44
-30 76 10 53 50 126 80 146 l26 17 -17 -25 c-32 -49 -11 -142 35 -161 8 -3 50
7 93 22 71 25 79 31 84 58 7 39 -7 76 -43 110 l-28 27 25 -7 c14 -3 36 -11 50
-18z m-423 -25 c7 -5 -18 -8 -57 -8 -38 1 -62 4 -52 8 24 9 94 9 109 0z m271
-34 c-3 -25 -17 -32 -37 -19 -19 12 -6 41 19 41 16 0 21 -5 18 -22z m-257 -68
c43 -157 92 -225 201 -279 l61 -31 -70 0 c-68 0 -71 1 -81 28 -14 39 -58 83
-77 76 -13 -6 -13 -10 5 -39 36 -59 31 -65 -65 -65 l-84 0 6 33 c3 17 10 38
16 45 7 9 5 17 -9 27 -10 8 -22 15 -25 15 -13 0 -28 -27 -39 -73 -10 -36 -17
-47 -32 -47 -11 0 -18 3 -16 8 23 43 41 92 45 121 3 20 15 45 26 55 17 16 19
28 14 78 -5 59 -5 60 25 72 43 18 91 7 99 -24z m-306 -4 c18 -13 17 -15 -20
-25 -60 -16 -145 -11 -145 9 0 27 132 40 165 16z m23 -91 c37 -11 52 -21 52
-33 0 -36 -49 -120 -86 -148 -35 -27 -45 -29 -139 -32 l-102 -4 -43 41 c-23
22 -40 45 -38 51 2 6 17 19 33 28 16 9 35 24 42 32 11 13 12 13 7 -2 -8 -22 9
-24 26 -3 7 8 9 15 4 15 -18 0 40 33 89 51 64 23 89 23 155 4z m879 -132 c-4
-35 -9 -68 -12 -73 -4 -6 -48 -10 -98 -10 l-92 0 41 20 c61 31 121 86 136 125
18 52 32 18 25 -62z m-108 41 c-33 -35 -69 -53 -135 -65 -62 -11 -139 5 -184
40 -24 19 -24 19 30 1 89 -31 198 -21 262 25 44 31 57 31 27 -1z m-749 -109
c-7 -8 -17 -15 -22 -15 -6 0 -5 7 2 15 7 8 17 15 22 15 6 0 5 -7 -2 -15z
m1565 -230 c50 -25 105 -80 130 -130 27 -56 32 -164 11 -220 -29 -75 -69 -120
-137 -154 -191 -95 -408 35 -409 245 0 128 64 223 185 271 45 18 172 11 220
-12z m-2598 -17 c15 -19 62 -400 52 -419 -5 -9 -14 -19 -22 -22 -19 -7 -388
147 -399 167 -5 9 -5 23 0 32 15 28 316 253 338 254 12 0 26 -6 31 -12z m1001
-580 c17 -17 17 -519 0 -536 -17 -17 -519 -17 -536 0 -17 17 -17 519 0 536 17
17 519 17 536 0z m1149 -470 c68 -68 123 -129 123 -138 0 -22 -241 -260 -264
-260 -11 0 -69 49 -138 117 -89 88 -118 123 -118 142 0 19 29 55 117 143 72
72 125 118 138 118 12 0 67 -47 142 -122z m751 -374 c111 -46 165 -165 131
-289 -14 -51 -93 -130 -146 -144 -91 -26 -166 -7 -233 57 -148 144 -48 391
158 392 29 0 69 -7 90 -16z m-3063 -73 c47 -21 71 -46 105 -109 21 -39 30 -46
50 -44 62 7 73 6 83 -10 26 -40 -45 -107 -121 -116 -36 -4 -53 -13 -81 -42
-91 -96 -232 -66 -294 63 -29 59 -37 64 -81 47 -31 -12 -53 -4 -61 20 -14 44
66 110 135 114 29 1 44 9 61 30 51 65 127 83 204 47z"/>
<path d="M3025 1991 c-84 -38 -135 -117 -135 -211 0 -131 99 -230 230 -230 59
0 120 23 158 60 l24 22 -57 34 c-31 19 -84 53 -117 75 -33 23 -62 39 -65 36
-2 -3 5 -27 16 -52 24 -54 27 -79 9 -73 -10 4 -54 97 -73 157 -12 38 22 23
160 -69 74 -49 136 -90 139 -90 12 0 36 88 36 133 -1 128 -100 227 -230 227
-32 0 -72 -8 -95 -19z m169 -166 c31 -77 31 -76 10 -68 -15 5 -41 55 -58 111
-5 16 -3 22 7 22 9 0 26 -27 41 -65z"/>
<path d="M462 1873 c-77 -60 -138 -110 -135 -113 8 -9 327 -139 331 -135 7 6
-41 355 -48 355 -4 0 -71 -48 -148 -107z"/>
<path d="M1155 1387 c-3 -7 -4 -109 -3 -227 l3 -215 225 0 225 0 0 225 0 225
-223 3 c-175 2 -224 0 -227 -11z m393 -173 c15 -4 22 -14 22 -30 0 -20 -4 -23
-42 -21 -58 3 -63 -23 -9 -47 76 -35 77 -114 2 -137 -59 -17 -105 -3 -109 35
-3 25 -1 28 15 21 10 -5 31 -9 48 -9 43 -1 44 26 1 47 -114 54 -53 174 72 141z
m-148 -29 c0 -21 -5 -25 -30 -25 l-30 0 0 -90 0 -90 -35 0 -35 0 0 90 0 90
-30 0 c-25 0 -30 4 -30 25 0 25 0 25 95 25 95 0 95 0 95 -25z"/>
<path d="M3392 569 c-48 -14 -109 -80 -123 -131 -23 -86 9 -175 79 -223 46
-31 62 -32 62 -1 0 13 -6 24 -12 23 -34 -1 -45 5 -61 33 -21 34 -9 40 18 10
21 -24 51 -26 59 -5 3 10 -3 17 -19 21 -55 14 -70 64 -48 159 7 28 13 39 24
35 18 -6 160 -6 178 0 11 4 17 -7 24 -35 22 -94 7 -145 -46 -159 -20 -5 -22
-11 -19 -56 4 -57 12 -60 64 -25 58 39 83 89 83 165 0 77 -26 127 -85 166 -43
29 -125 39 -178 23z"/>
<path d="M347 414 c-3 -3 6 -16 19 -29 14 -14 33 -45 44 -70 15 -34 25 -45 42
-45 22 0 22 0 -4 28 -14 15 -35 46 -46 68 -20 39 -43 59 -55 48z"/>
</g>
</svg>
